<svg width="41" height="41" viewBox="0 0 41 41" fill="none" xmlns="http://www.w3.org/2000/svg">
<g clip-path="url(#clip0_5_31)">
<path fill-rule="evenodd" clip-rule="evenodd" d="M20.5004 0.854187C15.6338 0.856712 10.9267 2.58039 7.22088 5.717C3.51505 8.85361 1.05214 13.1986 0.27253 17.9751C-0.507083 22.7516 0.447433 27.6481 2.96542 31.789C5.48341 35.9299 9.40066 39.0453 14.0167 40.578C15.0351 40.767 15.4187 40.1359 15.4187 39.5992C15.4187 39.0625 15.3983 37.5065 15.3915 35.8053C9.68861 37.0373 8.48353 33.3988 8.48353 33.3988C7.55341 31.0361 6.20915 30.415 6.20915 30.415C4.3489 29.1526 6.34834 29.1763 6.34834 29.1763C8.40886 29.3214 9.49174 31.2791 9.49174 31.2791C11.318 34.3945 14.2883 33.4933 15.456 32.9667C15.6393 31.647 16.1723 30.7492 16.7596 30.2395C12.204 29.7264 7.41762 27.978 7.41762 20.1676C7.38939 18.142 8.14535 16.1832 9.52908 14.6963C9.31861 14.1832 8.61592 12.1108 9.72935 9.2958C9.72935 9.2958 11.4504 8.749 15.3678 11.3851C18.7279 10.4715 22.273 10.4715 25.6331 11.3851C29.547 8.749 31.2647 9.2958 31.2647 9.2958C32.3815 12.104 31.6788 14.1765 31.4684 14.6963C32.8565 16.1834 33.614 18.1457 33.5832 20.1744C33.5832 28.0017 28.7866 29.7264 24.2243 30.2294C24.9575 30.8639 25.6127 32.1027 25.6127 34.0063C25.6127 36.7336 25.5889 38.9275 25.5889 39.5992C25.5889 40.1426 25.9589 40.7772 26.9977 40.578C31.6143 39.0451 35.5319 35.9292 38.0499 31.7875C40.5678 27.6459 41.5218 22.7487 40.7413 17.9718C39.9608 13.1949 37.4967 8.84979 33.7897 5.71372C30.0826 2.57765 25.3744 0.855112 20.5072 0.854187H20.5004Z" fill="#222233"/>
<path d="M7.76342 30.1213C7.71929 30.2226 7.55635 30.253 7.42396 30.1821C7.29157 30.1112 7.19313 29.9796 7.24066 29.8749C7.28818 29.7703 7.44773 29.7433 7.58012 29.8142C7.71251 29.8851 7.81434 30.0201 7.76342 30.1213Z" fill="#222233"/>
<path d="M8.59512 31.0428C8.52482 31.078 8.44439 31.0878 8.3676 31.0706C8.29082 31.0533 8.22245 31.0101 8.17419 30.9483C8.0418 30.8065 8.01463 30.6107 8.11647 30.523C8.21831 30.4352 8.40163 30.4757 8.53402 30.6175C8.66641 30.7593 8.69696 30.955 8.59512 31.0428Z" fill="#222233"/>
<path d="M9.40311 32.214C9.27751 32.3018 9.06364 32.214 8.94483 32.0385C8.91197 32.007 8.88585 31.9693 8.868 31.9275C8.85015 31.8857 8.84094 31.8408 8.84094 31.7955C8.84094 31.7501 8.85015 31.7052 8.868 31.6634C8.88585 31.6217 8.91197 31.5839 8.94483 31.5524C9.07043 31.4681 9.2843 31.5524 9.40311 31.7246C9.52192 31.8967 9.52532 32.1262 9.40311 32.214V32.214Z" fill="#222233"/>
<path d="M10.4995 33.3481C10.3875 33.473 10.1601 33.4392 9.97337 33.2705C9.78667 33.1017 9.74253 32.8722 9.85455 32.7507C9.96657 32.6291 10.194 32.6629 10.3875 32.8283C10.581 32.9937 10.6183 33.2266 10.4995 33.3481V33.3481Z" fill="#222233"/>
<path d="M12.0372 34.0097C11.9863 34.1683 11.7554 34.2392 11.5246 34.1717C11.2938 34.1042 11.141 33.9152 11.1851 33.7531C11.2293 33.5911 11.4635 33.5169 11.6977 33.5911C11.932 33.6654 12.0813 33.8443 12.0372 34.0097Z" fill="#222233"/>
<path d="M13.7142 34.1244C13.7142 34.2898 13.5241 34.4316 13.2797 34.4349C13.0353 34.4383 12.835 34.3033 12.835 34.1379C12.835 33.9725 13.0251 33.8308 13.2695 33.8274C13.5139 33.824 13.7142 33.9557 13.7142 34.1244Z" fill="#222233"/>
<path d="M15.2758 33.8645C15.3063 34.0299 15.1366 34.2021 14.8922 34.2426C14.6478 34.2831 14.4339 34.1852 14.4033 34.0232C14.3728 33.8612 14.5493 33.6857 14.7869 33.6418C15.0246 33.5979 15.2452 33.6992 15.2758 33.8645Z" fill="#222233"/>
</g>
<defs>
<clipPath id="clip0_5_31">
<rect width="41" height="41" fill="white"/>
</clipPath>
</defs>
</svg>
