<svg width="65" height="20" viewBox="0 0 65 20" fill="none" xmlns="http://www.w3.org/2000/svg">
<path d="M7.06818 3.36364V15H5.65909V3.36364H7.06818ZM9.2571 4.61364V3.36364H17.9844V4.61364H14.3253V15H12.9162V4.61364H9.2571Z" fill="black"/>
<path d="M21 10C21 4.47715 25.4772 0 31 0H55C60.5228 0 65 4.47715 65 10V10C65 15.5228 60.5228 20 55 20H31C25.4772 20 21 15.5228 21 10V10Z" fill="#222233"/>
<path d="M33.0953 6.36364L34.9249 9.4858L36.7544 6.36364H38.1067L35.6408 10.1818L38.1067 14H36.7544L34.9249 11.0369L33.0953 14H31.7431L34.1692 10.1818L31.7431 6.36364H33.0953ZM42.0281 14.179C41.5442 14.179 41.105 14.0878 40.7106 13.9055C40.3162 13.7199 40.003 13.4531 39.771 13.1051C39.5389 12.7538 39.4229 12.3295 39.4229 11.8324C39.4229 11.3949 39.5091 11.0402 39.6815 10.7685C39.8538 10.4934 40.0842 10.2779 40.3725 10.1222C40.6609 9.96638 40.979 9.85038 41.3271 9.77415C41.6784 9.6946 42.0314 9.63163 42.386 9.58523C42.85 9.52557 43.2262 9.48082 43.5146 9.45099C43.8062 9.41785 44.0183 9.36316 44.1509 9.28693C44.2868 9.2107 44.3548 9.07812 44.3548 8.8892V8.84943C44.3548 8.3589 44.2205 7.97775 43.9521 7.70597C43.6869 7.43419 43.2842 7.2983 42.744 7.2983C42.1838 7.2983 41.7447 7.42093 41.4265 7.66619C41.1083 7.91146 40.8846 8.1733 40.7553 8.4517L39.6417 8.05398C39.8406 7.58996 40.1057 7.22869 40.4371 6.97017C40.7719 6.70833 41.1365 6.52604 41.5309 6.4233C41.9286 6.31723 42.3197 6.2642 42.7042 6.2642C42.9495 6.2642 43.2312 6.29403 43.5494 6.35369C43.8709 6.41004 44.1808 6.5277 44.479 6.70668C44.7807 6.88565 45.0309 7.15578 45.2298 7.51705C45.4286 7.87831 45.5281 8.36222 45.5281 8.96875V14H44.3548V12.9659H44.2951C44.2156 13.1316 44.083 13.3089 43.8974 13.4979C43.7118 13.6868 43.4648 13.8475 43.1566 13.9801C42.8484 14.1127 42.4722 14.179 42.0281 14.179ZM42.207 13.125C42.671 13.125 43.0621 13.0339 43.3803 12.8516C43.7018 12.6693 43.9438 12.4339 44.1062 12.1456C44.2719 11.8572 44.3548 11.554 44.3548 11.2358V10.1619C44.305 10.2216 44.1957 10.2763 44.0266 10.326C43.8609 10.3724 43.6687 10.4138 43.4499 10.4503C43.2345 10.4834 43.024 10.5133 42.8185 10.5398C42.6164 10.563 42.4523 10.5829 42.3263 10.5994C42.0214 10.6392 41.7364 10.7038 41.4712 10.7933C41.2094 10.8795 40.9973 11.0104 40.8349 11.1861C40.6758 11.3584 40.5962 11.5937 40.5962 11.892C40.5962 12.2997 40.747 12.608 41.0487 12.8168C41.3536 13.0223 41.7397 13.125 42.207 13.125ZM53.3372 3.5L53.9338 4.21591C53.7018 4.44129 53.4333 4.59872 53.1284 4.68821C52.8234 4.7777 52.4788 4.83239 52.0943 4.85227C51.7098 4.87216 51.2823 4.89205 50.8116 4.91193C50.2813 4.93182 49.8422 5.06108 49.4941 5.29972C49.1461 5.53835 48.8777 5.88305 48.6887 6.33381C48.4998 6.78456 48.3788 7.33807 48.3258 7.99432H48.4252C48.6838 7.51705 49.0417 7.16572 49.4991 6.94034C49.9565 6.71496 50.447 6.60227 50.9707 6.60227C51.5673 6.60227 52.1042 6.74148 52.5815 7.01989C53.0588 7.2983 53.4366 7.71094 53.715 8.25781C53.9934 8.80469 54.1326 9.47917 54.1326 10.2812C54.1326 11.08 53.9901 11.7694 53.7051 12.3494C53.4234 12.9295 53.0273 13.3769 52.5169 13.6918C52.0098 14.0033 51.4148 14.1591 50.7321 14.1591C50.0493 14.1591 49.4511 13.9983 48.9373 13.6768C48.4236 13.352 48.0242 12.8714 47.7392 12.2351C47.4541 11.5954 47.3116 10.8049 47.3116 9.86364V9.0483C47.3116 7.34801 47.6 6.05871 48.1767 5.1804C48.7567 4.30208 49.6284 3.84801 50.7917 3.81818C51.2027 3.80492 51.569 3.80161 51.8904 3.80824C52.2119 3.81487 52.492 3.79995 52.7306 3.76349C52.9693 3.72704 53.1715 3.6392 53.3372 3.5ZM50.7321 13.1051C51.1928 13.1051 51.5888 12.9891 51.9203 12.7571C52.255 12.5251 52.5119 12.1986 52.6909 11.7777C52.8699 11.3535 52.9593 10.8546 52.9593 10.2812C52.9593 9.72443 52.8682 9.25047 52.6859 8.85938C52.5069 8.46828 52.2501 8.16998 51.9153 7.96449C51.5806 7.759 51.1795 7.65625 50.7122 7.65625C50.3708 7.65625 50.0642 7.71425 49.7924 7.83026C49.5207 7.94626 49.2886 8.11695 49.0964 8.34233C48.9042 8.56771 48.755 8.8428 48.649 9.16761C48.5462 9.49242 48.4915 9.86364 48.4849 10.2812C48.4849 11.1364 48.6854 11.8208 49.0865 12.3345C49.4875 12.8482 50.036 13.1051 50.7321 13.1051Z" fill="white"/>
</svg>
